<?xml version="1.0" standalone="no"?>
<!DOCTYPE svg PUBLIC "-//W3C//DTD SVG 20010904//EN"
 "http://www.w3.org/TR/2001/REC-SVG-20010904/DTD/svg10.dtd">
<svg version="1.0" xmlns="http://www.w3.org/2000/svg"
 width="400.000000pt" height="400.000000pt" viewBox="0 0 400.000000 400.000000"
 preserveAspectRatio="xMidYMid meet">

<g transform="translate(0.000000,400.000000) scale(0.100000,-0.100000)"
fill="#FFF" stroke="none">
<path d="M521 2854 c-1 -12 6 -25 15 -28 13 -5 14 -3 7 6 -6 7 -13 20 -16 28
-4 10 -6 8 -6 -6z"/>
<path d="M460 2780 c-8 -15 -8 -25 0 -38 9 -14 10 -13 4 8 -3 14 -3 22 1 18 4
-4 9 -19 11 -34 2 -25 2 -25 -18 -7 -20 18 -21 18 -14 -7 3 -14 3 -19 0 -12
-9 20 -21 14 -32 -15 -87 -231 -116 -336 -136 -501 -18 -142 -20 -229 -6 -360
44 -420 222 -787 521 -1078 123 -119 218 -191 354 -269 246 -141 524 -215 830
-218 165 -2 217 11 289 74 60 53 73 76 154 274 39 94 89 215 112 270 23 55 85
206 137 335 105 261 330 807 460 1115 47 110 87 208 90 217 4 15 -7 17 -99 20
-56 2 -112 1 -124 0 -18 -3 -38 -46 -119 -250 -256 -647 -238 -605 -252 -586
-7 10 -66 151 -129 314 -64 162 -138 347 -163 410 l-46 115 -119 3 c-66 1
-126 0 -133 -2 -11 -5 -10 -13 3 -43 8 -21 53 -130 99 -243 46 -113 145 -353
219 -535 75 -181 136 -336 136 -344 0 -14 -47 -134 -145 -371 -31 -74 -85
-205 -120 -290 -93 -229 -93 -227 -117 -244 -17 -12 -50 -16 -144 -16 -386 0
-752 158 -1047 453 -250 250 -393 565 -428 943 -23 249 19 520 116 738 17 39
20 54 10 50 -7 -3 -17 -20 -21 -37 -4 -18 -9 -26 -11 -19 -3 6 -10 10 -16 6
-7 -3 -4 1 6 9 9 8 17 21 17 30 0 9 5 19 10 22 21 13 9 32 -20 33 -17 0 -44
12 -61 26 -17 14 -35 26 -41 26 -6 0 -8 7 -4 15 8 22 -2 18 -14 -5z"/>
<path d="M1313 2575 c-77 -21 -115 -39 -181 -84 -113 -76 -192 -185 -232 -319
-19 -64 -22 -89 -17 -195 7 -179 51 -284 168 -398 230 -224 626 -224 848 0 64
64 140 184 123 195 -13 8 -215 76 -217 74 -2 -2 -10 -18 -19 -36 -97 -190
-376 -239 -535 -96 -32 29 -62 70 -83 112 -31 62 -33 73 -33 172 0 93 3 112
27 162 52 111 136 177 254 199 144 27 289 -36 360 -157 15 -25 33 -44 42 -44
10 1 60 16 112 34 108 38 108 38 58 123 -62 103 -164 188 -288 239 -58 25 -80
28 -200 31 -96 2 -150 -1 -187 -12z"/>
</g>
</svg>
